mastitorrents.com
 
http://mastitorrents.com/forums/index.php

General

Ripper : Rahul
Complete name : Angoor (1982)
Format : AVI
Format/Info : Audio Video Interleave
File size : 927 MiB
Duration : 2h 9mn
Overall bit rate : 1 001 Kbps
Movie name : Angoor
Writing application : MEncoder dev-SVN-r21190-4.1.1
Writing library : MPlayer

Video
ID : 0
Format : MPEG-4 Visual
Format profile : Simple@L1
Format settings, BVOP : No
Format settings, QPel : No
Format settings, GMC : No warppoints
Format settings, Matrix : Default (H.263)
Codec ID : DIVX
Codec ID/Info : Project Mayo
Codec ID/Hint : DivX 4
Duration : 2h 9mn
Bit rate : 859 Kbps
Width : 480 pixels
Height : 360 pixels
Display aspect ratio : 4:3
Frame rate : 29.970 fps
Color space : YUV
Chroma subsampling : 4:2:0
Bit depth : 8 bits
Scan type : Progressive
Bits/(Pixel*Frame) : 0.166
Stream size : 796 MiB (86%)
Writing library : Lavc51.25.0

Audio
ID : 1
Format : MPEG Audio
Format version : Version 1
Format profile : Layer 3
Mode : Joint stereo
Mode extension : MS Stereo
Codec ID : 55
Codec ID/Hint : MP3
Duration : 2h 9mn
Bit rate mode : Constant
Bit rate : 128 Kbps
Channel(s) : 2 channels
Sampling rate : 48.0 KHz
Stream size : 119 MiB (13%)